<svg width="144" height="48" viewBox="0 0 144 48" fill="none" xmlns="http://www.w3.org/2000/svg">
<path fill-rule="evenodd" clip-rule="evenodd" d="M35.1506 33.3718H51.4355C51.5034 32.7884 51.5374 32.1551 51.5544 31.5718C51.5544 26.1384 47.1053 21.6384 41.5355 21.6384C35.7789 21.6384 31.4487 26.2051 31.4487 31.7718C31.4487 37.1718 35.8468 41.9384 41.4506 41.9384C45.2884 41.9384 48.5997 39.8718 50.3317 36.6384L46.3921 36.5551C45.2034 37.8718 43.4204 38.6384 41.6034 38.6384C38.377 38.6384 35.8978 36.3718 35.1506 33.3718ZM35.1338 30.5883C35.3376 27.405 38.2923 24.9383 41.4848 24.9383C44.6942 24.9383 47.632 27.4216 47.8357 30.5883H35.1338Z" fill="#231F20"/>
<path d="M67.7546 41.4549V30.9716C67.7546 27.7049 66.7527 24.9382 62.8471 24.9382C59.2301 24.9382 57.6678 27.6882 57.6678 30.9382V41.4549H53.9829V22.1549H57.4301V24.2049H57.498C58.9244 22.3549 60.9791 21.6216 63.2546 21.6216C66.0565 21.6216 68.6886 22.7049 70.2169 25.0716C71.1678 26.5382 71.4565 28.3049 71.4565 30.0216V41.4549H67.7546Z" fill="#231F20"/>
<path fill-rule="evenodd" clip-rule="evenodd" d="M91.0702 38.705V41.455H94.4664V15.6716H90.7815V24.505H90.7136C89.1513 22.555 86.5193 21.6216 84.04 21.6216C78.0796 21.6216 73.8174 26.0883 73.8174 31.8716C73.8174 37.6216 78.1476 41.9383 84.04 41.9383C86.774 41.9383 89.3721 40.9383 91.0023 38.705H91.0702ZM77.5018 31.8386C77.5018 28.0719 80.3376 24.9386 84.2433 24.9386C88.2678 24.9386 91.0697 27.9719 91.0527 31.8386C91.0527 35.5719 88.0471 38.6386 84.2093 38.6386C80.4565 38.6386 77.5018 35.4552 77.5018 31.8386Z" fill="#231F20"/>
<path d="M105.147 47.905H101.327L104.196 41.0717L96.3511 22.155H100.325L106.115 37.1384L112.042 22.155H116.015L105.147 47.905Z" fill="#231F20"/>
<path fill-rule="evenodd" clip-rule="evenodd" d="M115.913 31.6549C115.913 37.3716 120.735 41.9382 126.526 41.9382C132.486 41.9382 137.139 37.2382 137.139 31.7216C137.139 26.0049 132.282 21.6216 126.526 21.6216C120.854 21.6216 115.913 25.9716 115.913 31.6549ZM119.598 31.7718C119.598 28.0051 122.688 24.9385 126.526 24.9385C130.347 24.9385 133.437 27.9718 133.454 31.7385C133.454 35.5051 130.398 38.6385 126.526 38.6385C122.688 38.6385 119.598 35.5385 119.598 31.7718Z" fill="#231F20"/>
<path d="M140.146 41.4552V15.6719H143.847V41.4552H140.146Z" fill="#231F20"/>
<path d="M3.65094 37.6551C3.80377 38.2717 4.00755 38.7717 4.24528 39.1551C4.48302 39.5384 4.78868 39.8717 5.14528 40.1884C6.31698 41.1884 7.79434 41.7051 9.5434 41.7051C11.2755 41.7051 12.9057 41.2884 14.383 40.4884V37.0217C12.8547 37.9051 11.3943 38.3551 10.0189 38.3551C8.15094 38.3551 7.18302 37.2384 7.18302 35.0217V25.5717H13.3811V22.2217H7.2V16.0217H3.54906V22.2051H0V25.5551H3.39623V34.1217C3.39623 35.8551 3.48113 37.0384 3.65094 37.6551Z" fill="#231F20"/>
<path d="M25.9809 25.3886C27.1186 25.3886 28.3752 26.0053 29.7168 27.2386L31.7205 23.972C30.0903 22.5053 28.1205 21.8386 26.9658 21.8386H26.7111C25.3866 21.8386 23.179 21.8386 21.379 24.7053L21.3111 24.822L21.3281 22.222H17.5073V41.3553H21.3281V31.3553C21.3281 29.7553 21.7866 28.3553 22.7036 27.172C23.6205 25.9886 24.7243 25.3886 25.9809 25.3886Z" fill="#231F20"/>
<path d="M105.656 17.7718C105.487 17.8051 105.317 17.6718 105.283 17.5051L104.298 11.4385C103.975 9.45514 104.281 7.80514 105.351 6.45514C106.387 5.12181 107.932 4.32181 109.902 4.00514L135.577 0.00514204C135.747 -0.0281913 135.917 0.105142 135.951 0.271809L137.903 12.4385C137.937 12.6051 137.802 12.7718 137.632 12.8051L105.656 17.7718Z" fill="#F27A1A"/>
<path d="M114.249 11.3552C114.028 12.1385 113.434 12.6552 112.619 12.7885C111.583 12.9552 110.394 12.3552 110.156 10.8885C109.936 9.57187 110.649 8.52187 111.889 8.32187C112.704 8.18854 113.366 8.48854 113.892 9.18854L115.132 8.98854C114.572 7.8052 113.111 7.1052 111.719 7.32187C109.885 7.62187 108.73 9.22187 109.036 11.0552C109.341 12.9052 110.955 14.0719 112.772 13.7719C114.164 13.5552 115.217 12.5219 115.472 11.1385L114.249 11.3552Z" fill="white"/>
<path fill-rule="evenodd" clip-rule="evenodd" d="M116.202 9.88869C115.896 8.12202 117.169 6.45535 119.037 6.15535C120.888 5.85535 122.637 7.05535 122.96 8.82202C123.249 10.6054 121.992 12.3054 120.124 12.6054C118.256 12.9054 116.507 11.6887 116.202 9.88869ZM117.305 9.72191C117.509 10.9719 118.698 11.8052 119.937 11.6052C121.194 11.4052 122.026 10.2386 121.822 8.97191C121.619 7.75524 120.43 6.92191 119.19 7.12191C117.951 7.32191 117.102 8.48857 117.305 9.72191Z" fill="white"/>
<path d="M133.913 10.2217L133.301 6.5217C133.03 4.90504 131.926 4.0717 130.33 4.33837C129.362 4.48837 128.784 4.90504 128.445 5.68837L128.411 5.75504L128.377 5.70504C127.918 5.05504 126.967 4.88837 126.271 4.98837C125.473 5.1217 125.066 5.40504 124.624 6.10504L124.607 6.1217L124.539 6.13837L124.42 5.4717L123.401 5.63837L124.42 11.7717L125.541 11.5884L124.981 8.15504C124.777 6.88837 125.184 6.18837 126.271 6.0217C126.815 5.93837 127.256 6.0717 127.579 6.4217C127.918 6.80504 127.986 7.20504 128.054 7.6717L128.632 11.0884L129.752 10.905L129.175 7.48837C129.022 6.60504 129.039 5.5717 130.398 5.35504C131.399 5.18837 132.045 5.7717 132.249 7.00504L132.809 10.4217L133.913 10.2217Z" fill="white"/>
<path d="M108.849 13.8387C108.849 14.322 108.442 14.722 107.949 14.722C107.457 14.722 107.049 14.322 107.049 13.8387C107.049 13.3553 107.457 12.9553 107.949 12.9553C108.459 12.9387 108.849 13.3387 108.849 13.8387Z" fill="white"/>
</svg>
